<?xml version="1.0" encoding="UTF-8" standalone="no"?>
<!DOCTYPE svg PUBLIC "-//W3C//DTD SVG 1.1//EN"
 "http://www.w3.org/Graphics/SVG/1.1/DTD/svg11.dtd">
<!-- Generated by graphviz version 2.40.1 (20161225.0304)
 -->
<!-- Title: mawinter Pages: 1 -->
<svg width="1719pt" height="399pt"
 viewBox="0.00 0.00 1718.50 399.00" xmlns="http://www.w3.org/2000/svg" xmlns:xlink="http://www.w3.org/1999/xlink">
<g id="graph0" class="graph" transform="scale(1 1) rotate(0) translate(4 395)">
<title>mawinter</title>
<polygon fill="#ffffff" stroke="transparent" points="-4,4 -4,-395 1714.5,-395 1714.5,4 -4,4"/>
<!-- Category -->
<g id="node1" class="node">
<title>Category</title>
<polygon fill="#efefef" stroke="transparent" points="43,-252.5 43,-287.5 227,-287.5 227,-252.5 43,-252.5"/>
<polygon fill="none" stroke="#000000" points="43,-252.5 43,-287.5 227,-287.5 227,-252.5 43,-252.5"/>
<text text-anchor="start" x="49.8664" y="-265.3" font-family="Arial Bold" font-size="18.00" fill="#000000">Category</text>
<text text-anchor="start" x="122.8798" y="-265.3" font-family="Arial" font-size="14.00" fill="#000000"> </text>
<text text-anchor="start" x="126.7704" y="-265.3" font-family="Arial" font-size="14.00" fill="#666666">[BASE TABLE]</text>
<polygon fill="none" stroke="#000000" points="43,-222.5 43,-252.5 227,-252.5 227,-222.5 43,-222.5"/>
<text text-anchor="start" x="50" y="-233.9" font-family="Arial" font-size="14.00" fill="#000000">id </text>
<text text-anchor="start" x="64.7798" y="-233.9" font-family="Arial" font-size="14.00" fill="#666666">[int(11)]</text>
<polygon fill="none" stroke="#000000" points="43,-192.5 43,-222.5 227,-222.5 227,-192.5 43,-192.5"/>
<text text-anchor="start" x="50" y="-203.9" font-family="Arial" font-size="14.00" fill="#000000">category_id </text>
<text text-anchor="start" x="126.244" y="-203.9" font-family="Arial" font-size="14.00" fill="#666666">[int(11)]</text>
<polygon fill="none" stroke="#000000" points="43,-162.5 43,-192.5 227,-192.5 227,-162.5 43,-162.5"/>
<text text-anchor="start" x="50" y="-173.9" font-family="Arial" font-size="14.00" fill="#000000">name </text>
<text text-anchor="start" x="88.899" y="-173.9" font-family="Arial" font-size="14.00" fill="#666666">[varchar(255)]</text>
<polygon fill="none" stroke="#000000" points="43,-132.5 43,-162.5 227,-162.5 227,-132.5 43,-132.5"/>
<text text-anchor="start" x="50" y="-143.9" font-family="Arial" font-size="14.00" fill="#000000">created_at </text>
<text text-anchor="start" x="120.028" y="-143.9" font-family="Arial" font-size="14.00" fill="#666666">[datetime]</text>
<polygon fill="none" stroke="#000000" points="43,-102.5 43,-132.5 227,-132.5 227,-102.5 43,-102.5"/>
<text text-anchor="start" x="50" y="-113.9" font-family="Arial" font-size="14.00" fill="#000000">updated_at </text>
<text text-anchor="start" x="123.9326" y="-113.9" font-family="Arial" font-size="14.00" fill="#666666">[timestamp]</text>
</g>
<!-- gorp_migrations -->
<g id="node2" class="node">
<title>gorp_migrations</title>
<polygon fill="#efefef" stroke="transparent" points="331,-207.5 331,-242.5 571,-242.5 571,-207.5 331,-207.5"/>
<polygon fill="none" stroke="#000000" points="331,-207.5 331,-242.5 571,-242.5 571,-207.5 331,-207.5"/>
<text text-anchor="start" x="337.8647" y="-220.3" font-family="Arial Bold" font-size="18.00" fill="#000000">gorp_migrations</text>
<text text-anchor="start" x="466.8815" y="-220.3" font-family="Arial" font-size="14.00" fill="#000000"> </text>
<text text-anchor="start" x="470.7721" y="-220.3" font-family="Arial" font-size="14.00" fill="#666666">[BASE TABLE]</text>
<polygon fill="none" stroke="#000000" points="331,-177.5 331,-207.5 571,-207.5 571,-177.5 331,-177.5"/>
<text text-anchor="start" x="338" y="-188.9" font-family="Arial" font-size="14.00" fill="#000000">id </text>
<text text-anchor="start" x="352.7798" y="-188.9" font-family="Arial" font-size="14.00" fill="#666666">[varchar(255)]</text>
<polygon fill="none" stroke="#000000" points="331,-147.5 331,-177.5 571,-177.5 571,-147.5 331,-147.5"/>
<text text-anchor="start" x="338" y="-158.9" font-family="Arial" font-size="14.00" fill="#000000">applied_at </text>
<text text-anchor="start" x="406.4726" y="-158.9" font-family="Arial" font-size="14.00" fill="#666666">[datetime]</text>
</g>
<!-- Monthly_Fix_Billing -->
<g id="node3" class="node">
<title>Monthly_Fix_Billing</title>
<polygon fill="#efefef" stroke="transparent" points="675,-297.5 675,-332.5 941,-332.5 941,-297.5 675,-297.5"/>
<polygon fill="none" stroke="#000000" points="675,-297.5 675,-332.5 941,-332.5 941,-297.5 675,-297.5"/>
<text text-anchor="start" x="681.8714" y="-310.3" font-family="Arial Bold" font-size="18.00" fill="#000000">Monthly_Fix_Billing</text>
<text text-anchor="start" x="836.8748" y="-310.3" font-family="Arial" font-size="14.00" fill="#000000"> </text>
<text text-anchor="start" x="840.7654" y="-310.3" font-family="Arial" font-size="14.00" fill="#666666">[BASE TABLE]</text>
<polygon fill="none" stroke="#000000" points="675,-267.5 675,-297.5 941,-297.5 941,-267.5 675,-267.5"/>
<text text-anchor="start" x="682" y="-278.9" font-family="Arial" font-size="14.00" fill="#000000">id </text>
<text text-anchor="start" x="696.7798" y="-278.9" font-family="Arial" font-size="14.00" fill="#666666">[int(11)]</text>
<polygon fill="none" stroke="#000000" points="675,-237.5 675,-267.5 941,-267.5 941,-237.5 675,-237.5"/>
<text text-anchor="start" x="682" y="-248.9" font-family="Arial" font-size="14.00" fill="#000000">category_id </text>
<text text-anchor="start" x="758.244" y="-248.9" font-family="Arial" font-size="14.00" fill="#666666">[int(11)]</text>
<polygon fill="none" stroke="#000000" points="675,-207.5 675,-237.5 941,-237.5 941,-207.5 675,-207.5"/>
<text text-anchor="start" x="682" y="-218.9" font-family="Arial" font-size="14.00" fill="#000000">day </text>
<text text-anchor="start" x="708.4558" y="-218.9" font-family="Arial" font-size="14.00" fill="#666666">[int(11)]</text>
<polygon fill="none" stroke="#000000" points="675,-177.5 675,-207.5 941,-207.5 941,-177.5 675,-177.5"/>
<text text-anchor="start" x="682" y="-188.9" font-family="Arial" font-size="14.00" fill="#000000">price </text>
<text text-anchor="start" x="716.223" y="-188.9" font-family="Arial" font-size="14.00" fill="#666666">[int(11)]</text>
<polygon fill="none" stroke="#000000" points="675,-147.5 675,-177.5 941,-177.5 941,-147.5 675,-147.5"/>
<text text-anchor="start" x="682" y="-158.9" font-family="Arial" font-size="14.00" fill="#000000">type </text>
<text text-anchor="start" x="712.3464" y="-158.9" font-family="Arial" font-size="14.00" fill="#666666">[varchar(64)]</text>
<polygon fill="none" stroke="#000000" points="675,-117.5 675,-147.5 941,-147.5 941,-117.5 675,-117.5"/>
<text text-anchor="start" x="682" y="-128.9" font-family="Arial" font-size="14.00" fill="#000000">memo </text>
<text text-anchor="start" x="724.777" y="-128.9" font-family="Arial" font-size="14.00" fill="#666666">[varchar(255)]</text>
<polygon fill="none" stroke="#000000" points="675,-87.5 675,-117.5 941,-117.5 941,-87.5 675,-87.5"/>
<text text-anchor="start" x="682" y="-98.9" font-family="Arial" font-size="14.00" fill="#000000">created_at </text>
<text text-anchor="start" x="752.028" y="-98.9" font-family="Arial" font-size="14.00" fill="#666666">[datetime]</text>
<polygon fill="none" stroke="#000000" points="675,-57.5 675,-87.5 941,-87.5 941,-57.5 675,-57.5"/>
<text text-anchor="start" x="682" y="-68.9" font-family="Arial" font-size="14.00" fill="#000000">updated_at </text>
<text text-anchor="start" x="755.9326" y="-68.9" font-family="Arial" font-size="14.00" fill="#666666">[timestamp]</text>
</g>
<!-- Monthly_Fix_Done -->
<g id="node4" class="node">
<title>Monthly_Fix_Done</title>
<polygon fill="#efefef" stroke="transparent" points="1046,-237.5 1046,-272.5 1307,-272.5 1307,-237.5 1046,-237.5"/>
<polygon fill="none" stroke="#000000" points="1046,-237.5 1046,-272.5 1307,-272.5 1307,-237.5 1046,-237.5"/>
<text text-anchor="start" x="1052.8617" y="-250.3" font-family="Arial Bold" font-size="18.00" fill="#000000">Monthly_Fix_Done</text>
<text text-anchor="start" x="1202.8845" y="-250.3" font-family="Arial" font-size="14.00" fill="#000000"> </text>
<text text-anchor="start" x="1206.7751" y="-250.3" font-family="Arial" font-size="14.00" fill="#666666">[BASE TABLE]</text>
<polygon fill="none" stroke="#000000" points="1046,-207.5 1046,-237.5 1307,-237.5 1307,-207.5 1046,-207.5"/>
<text text-anchor="start" x="1053" y="-218.9" font-family="Arial" font-size="14.00" fill="#000000">yyyymm </text>
<text text-anchor="start" x="1108.2118" y="-218.9" font-family="Arial" font-size="14.00" fill="#666666">[varchar(6)]</text>
<polygon fill="none" stroke="#000000" points="1046,-177.5 1046,-207.5 1307,-207.5 1307,-177.5 1046,-177.5"/>
<text text-anchor="start" x="1053" y="-188.9" font-family="Arial" font-size="14.00" fill="#000000">done </text>
<text text-anchor="start" x="1088.021" y="-188.9" font-family="Arial" font-size="14.00" fill="#666666">[tinyint(1)]</text>
<polygon fill="none" stroke="#000000" points="1046,-147.5 1046,-177.5 1307,-177.5 1307,-147.5 1046,-147.5"/>
<text text-anchor="start" x="1053" y="-158.9" font-family="Arial" font-size="14.00" fill="#000000">created_at </text>
<text text-anchor="start" x="1123.028" y="-158.9" font-family="Arial" font-size="14.00" fill="#666666">[datetime]</text>
<polygon fill="none" stroke="#000000" points="1046,-117.5 1046,-147.5 1307,-147.5 1307,-117.5 1046,-117.5"/>
<text text-anchor="start" x="1053" y="-128.9" font-family="Arial" font-size="14.00" fill="#000000">updated_at </text>
<text text-anchor="start" x="1126.9326" y="-128.9" font-family="Arial" font-size="14.00" fill="#666666">[timestamp]</text>
</g>
<!-- Record_YYYYMM -->
<g id="node5" class="node">
<title>Record_YYYYMM</title>
<polygon fill="#efefef" stroke="transparent" points="1411,-312.5 1411,-347.5 1668,-347.5 1668,-312.5 1411,-312.5"/>
<polygon fill="none" stroke="#000000" points="1411,-312.5 1411,-347.5 1668,-347.5 1668,-312.5 1411,-312.5"/>
<text text-anchor="start" x="1417.8669" y="-325.3" font-family="Arial Bold" font-size="18.00" fill="#000000">Record_YYYYMM</text>
<text text-anchor="start" x="1563.8793" y="-325.3" font-family="Arial" font-size="14.00" fill="#000000"> </text>
<text text-anchor="start" x="1567.7699" y="-325.3" font-family="Arial" font-size="14.00" fill="#666666">[BASE TABLE]</text>
<polygon fill="none" stroke="#000000" points="1411,-282.5 1411,-312.5 1668,-312.5 1668,-282.5 1411,-282.5"/>
<text text-anchor="start" x="1418" y="-293.9" font-family="Arial" font-size="14.00" fill="#000000">id </text>
<text text-anchor="start" x="1432.7798" y="-293.9" font-family="Arial" font-size="14.00" fill="#666666">[int(11)]</text>
<polygon fill="none" stroke="#000000" points="1411,-252.5 1411,-282.5 1668,-282.5 1668,-252.5 1411,-252.5"/>
<text text-anchor="start" x="1418" y="-263.9" font-family="Arial" font-size="14.00" fill="#000000">category_id </text>
<text text-anchor="start" x="1494.244" y="-263.9" font-family="Arial" font-size="14.00" fill="#666666">[int(11)]</text>
<polygon fill="none" stroke="#000000" points="1411,-222.5 1411,-252.5 1668,-252.5 1668,-222.5 1411,-222.5"/>
<text text-anchor="start" x="1418" y="-233.9" font-family="Arial" font-size="14.00" fill="#000000">datetime </text>
<text text-anchor="start" x="1475.5694" y="-233.9" font-family="Arial" font-size="14.00" fill="#666666">[datetime]</text>
<polygon fill="none" stroke="#000000" points="1411,-192.5 1411,-222.5 1668,-222.5 1668,-192.5 1411,-192.5"/>
<text text-anchor="start" x="1418" y="-203.9" font-family="Arial" font-size="14.00" fill="#000000">from </text>
<text text-anchor="start" x="1449.885" y="-203.9" font-family="Arial" font-size="14.00" fill="#666666">[varchar(64)]</text>
<polygon fill="none" stroke="#000000" points="1411,-162.5 1411,-192.5 1668,-192.5 1668,-162.5 1411,-162.5"/>
<text text-anchor="start" x="1418" y="-173.9" font-family="Arial" font-size="14.00" fill="#000000">type </text>
<text text-anchor="start" x="1448.3464" y="-173.9" font-family="Arial" font-size="14.00" fill="#666666">[varchar(64)]</text>
<polygon fill="none" stroke="#000000" points="1411,-132.5 1411,-162.5 1668,-162.5 1668,-132.5 1411,-132.5"/>
<text text-anchor="start" x="1418" y="-143.9" font-family="Arial" font-size="14.00" fill="#000000">price </text>
<text text-anchor="start" x="1452.223" y="-143.9" font-family="Arial" font-size="14.00" fill="#666666">[int(11)]</text>
<polygon fill="none" stroke="#000000" points="1411,-102.5 1411,-132.5 1668,-132.5 1668,-102.5 1411,-102.5"/>
<text text-anchor="start" x="1418" y="-113.9" font-family="Arial" font-size="14.00" fill="#000000">memo </text>
<text text-anchor="start" x="1460.777" y="-113.9" font-family="Arial" font-size="14.00" fill="#666666">[varchar(255)]</text>
<polygon fill="none" stroke="#000000" points="1411,-72.5 1411,-102.5 1668,-102.5 1668,-72.5 1411,-72.5"/>
<text text-anchor="start" x="1418" y="-83.9" font-family="Arial" font-size="14.00" fill="#000000">created_at </text>
<text text-anchor="start" x="1488.028" y="-83.9" font-family="Arial" font-size="14.00" fill="#666666">[datetime]</text>
<polygon fill="none" stroke="#000000" points="1411,-42.5 1411,-72.5 1668,-72.5 1668,-42.5 1411,-42.5"/>
<text text-anchor="start" x="1418" y="-53.9" font-family="Arial" font-size="14.00" fill="#000000">updated_at </text>
<text text-anchor="start" x="1491.9326" y="-53.9" font-family="Arial" font-size="14.00" fill="#666666">[timestamp]</text>
</g>
</g>
</svg>
